<?xml version="1.0" encoding="UTF-8"?>
<svg version="1.1" xmlns="http://www.w3.org/2000/svg" width="24" height="24" viewBox="0 0 512 512">
<path d="M0 0 C6.77715965 5.5583674 12.88350353 11.75631661 19.05859375 17.9609375 C20.21422229 19.11843426 21.37007414 20.27570811 22.52613831 21.43276978 C25.54827738 24.45870218 28.56739953 27.48762697 31.58587646 30.51721191 C34.67455447 33.61617295 37.76611335 36.71225713 40.85742188 39.80859375 C46.90775098 45.86960394 52.95489193 51.93378247 59 58 C58.06989219 59.27078793 57.13543988 60.53839665 56.19921875 61.8046875 C55.67932373 62.51093262 55.15942871 63.21717773 54.6237793 63.94482422 C53.12564577 65.84097338 51.57422096 67.47645904 49.8125 69.125 C44.80301177 73.99136 40.65317555 79.58206629 36.43066406 85.125 C35.50559739 86.33737407 34.57557705 87.54599133 33.63964844 88.75 C-5.81647043 139.54939225 -29.28083547 211.36741677 -22 276 C-20.28407886 289.61696977 -17.23344527 304.14409931 -7 314 C3.29671172 321.92317452 14.51894729 323.36438373 27.21679688 321.71142578 C40.3471854 319.68865087 52.60675734 315.69361105 65 311 C65 307.61971906 64.78301277 305.84491779 63.79296875 302.75390625 C44.71433552 241.21419388 58.98212291 168.49026577 88 112 C88.35094727 111.30648437 88.70189453 110.61296875 89.06347656 109.8984375 C98.76682157 90.9702686 112.05955429 73.92314001 129 61 C129.77859375 60.39414063 130.5571875 59.78828125 131.359375 59.1640625 C154.12820154 42.27845624 183.78481945 35.25187934 211.79101562 38.89892578 C235.12022491 42.47250672 254.97903301 54.18153911 269.65234375 72.6484375 C277.62131681 83.64356081 282.65207262 95.91906855 286 109 C286.23332031 109.90492188 286.46664063 110.80984375 286.70703125 111.7421875 C295.40554615 151.91806206 281.69702286 196.24071198 264 232 C263.32130859 233.37599365 263.32130859 233.37599365 262.62890625 234.77978516 C248.1731472 263.82352056 230.21216342 291.16779759 207 314 C231.79192923 312.01826341 251.66565083 300.16605452 269 283 C269.71285156 282.34773438 270.42570312 281.69546875 271.16015625 281.0234375 C282.9309653 270.05023974 291.50009042 255.51954122 300 242 C309.38225682 246.47161287 318.4277222 251.43798232 327.453125 256.58642578 C333.18562216 259.85272395 338.9360974 263.08139952 344.71875 266.2578125 C345.69702003 266.79538933 345.69702003 266.79538933 346.6950531 267.34382629 C349.28443513 268.76575797 351.87432645 270.18671659 354.46707153 271.60250854 C356.27224481 272.588249 358.07565844 273.57714912 359.87890625 274.56640625 C360.9160376 275.13302979 361.95316895 275.69965332 363.02172852 276.28344727 C366.11871821 278.06842427 369.04816775 279.98649853 372 282 C371.47850939 287.18423019 368.8804522 290.9893722 366.1875 295.3125 C365.69757568 296.10430664 365.20765137 296.89611328 364.70288086 297.71191406 C350.67711064 320.02675204 332.97735209 340.9453332 312 357 C311.16130371 357.64533691 311.16130371 357.64533691 310.30566406 358.30371094 C290.12654487 373.74769732 267.64914739 386.33714208 243 393 C241.68829834 393.36182373 241.68829834 393.36182373 240.35009766 393.73095703 C226.92223729 397.28876619 213.82652014 398.47370363 200 398.5 C198.91720261 398.50673737 198.91720261 398.50673737 197.81253052 398.51361084 C183.70372993 398.54938478 169.90889988 396.58707452 156.375 392.5 C155.16336182 392.14228516 155.16336182 392.14228516 153.92724609 391.77734375 C145.77650251 389.21076619 138.21420865 385.4514449 130.68896484 381.43164062 C125.51421369 378.61524123 125.51421369 378.61524123 119.81640625 378.45703125 C118.88699219 378.96621094 117.95757812 379.47539062 117 380 C115.78995887 380.57108783 114.57753131 381.13713545 113.36328125 381.69921875 C112.01291009 382.3617535 110.66265581 383.0245265 109.3125 383.6875 C68.05217612 403.41502201 18.43081928 413.74709704 -26 399 C-41.92762889 393.25688011 -54.75659013 384.6987742 -67 373 C-67.60070312 372.46246094 -68.20140625 371.92492187 -68.8203125 371.37109375 C-79.31585768 361.63220415 -86.16168097 348.87921539 -92 336 C-92.53367187 334.8553125 -93.06734375 333.710625 -93.6171875 332.53125 C-97.0094079 324.72738546 -99.2301778 316.81433332 -101.25 308.5625 C-101.61955811 307.0631189 -101.61955811 307.0631189 -101.99658203 305.53344727 C-105.83472644 289.07611001 -106.37235176 273.0096843 -106.3125 256.1875 C-106.31034485 255.10051819 -106.3081897 254.01353638 -106.30596924 252.89361572 C-106.25351515 236.40635562 -105.76154854 220.2889184 -103 204 C-102.70198486 202.19088135 -102.70198486 202.19088135 -102.39794922 200.34521484 C-96.11898854 163.1182682 -84.58417114 127.88792665 -68 94 C-67.58137695 93.14212891 -67.16275391 92.28425781 -66.73144531 91.40039062 C-57.00486861 71.69232285 -45.23333656 53.02644785 -31.49365234 35.87890625 C-30.04961226 34.06240863 -28.63925889 32.22483456 -27.23828125 30.375 C-18.96679645 19.51210378 -9.69379739 9.6030315 0 0 Z M170.0234375 136.1875 C155.64632831 156.17112667 148.40916624 182.26214782 143 206 C142.79117188 206.91571777 142.58234375 207.83143555 142.3671875 208.77490234 C138.56746279 226.20132969 138.54333176 243.2672209 139 261 C142.63326159 261 143.47281951 259.91197935 145.97119141 257.44580078 C146.72795166 256.66825439 146.72795166 256.66825439 147.5 255.875 C148.02899902 255.3372998 148.55799805 254.79959961 149.10302734 254.24560547 C154.9159614 248.22141792 160.00422319 241.70505413 165 235 C165.41991211 234.44618652 165.83982422 233.89237305 166.27246094 233.32177734 C186.38808602 206.72863833 210.28295269 165.72046982 206 131 C204.92457553 126.55198587 203.94521767 123.63014512 200 121 C188.21548206 119.5970812 177.19454772 127.57083001 170.0234375 136.1875 Z " fill="#000000" transform="translate(123,53)"/>
</svg>
