<?xml version="1.0" encoding="UTF-8"?>
<svg version="1.1" xmlns="http://www.w3.org/2000/svg" width="512" height="512">
<path d="M0 0 C0.70607895 -0.00276947 1.4121579 -0.00553894 2.13963318 -0.00839233 C4.44931543 -0.00905292 6.75702344 0.02257367 9.06640625 0.05859375 C9.86379211 0.06541168 10.66117798 0.07222961 11.48272705 0.07925415 C101.83295509 0.87511784 193.36739812 31.81366094 266.62890625 84.49609375 C267.39187012 85.04265625 268.15483398 85.58921875 268.94091797 86.15234375 C278.15217592 92.77484094 287.15005991 99.54128469 295.71484375 106.984375 C298.5100362 109.39363606 301.36671174 111.69853755 304.25390625 113.99609375 C309.19921748 118.01280942 313.6429529 122.40992877 318.08984375 126.95703125 C320.14443698 129.01162448 322.20927826 130.89390244 324.44140625 132.74609375 C330.4418613 137.87173913 335.63690856 143.86698586 340.95849609 149.67724609 C342.419048 151.26758688 343.8897588 152.84723977 345.3671875 154.421875 C351.35482236 160.86789339 356.81350977 167.6269565 362.16503906 174.59960938 C363.64677353 176.51924135 365.14770222 178.42250569 366.65234375 180.32421875 C379.56859034 196.77003358 391.33509147 214.28666011 401.62890625 232.49609375 C402.0765332 233.2859668 402.52416016 234.07583984 402.98535156 234.88964844 C439.72416711 300.10778597 462.54681224 375.29934698 462.92407227 450.52807617 C462.9357192 452.14437525 462.95636518 453.76063227 462.9855957 455.37670898 C463.0282565 457.74879253 463.04441974 460.11976835 463.0546875 462.4921875 C463.07219559 463.20789413 463.08970367 463.92360077 463.10774231 464.66099548 C463.08569267 469.77351266 461.93416637 472.62592588 458.62890625 476.49609375 C454.0361422 480.20191267 450.48226914 481.07430683 444.72338867 480.99945831 C443.94161129 481.00527208 443.15983391 481.01108584 442.3543663 481.01707578 C439.7307226 481.0316915 437.10801212 481.01778351 434.484375 481.00402832 C432.58605979 481.00863661 430.68774814 481.01498905 428.78944397 481.0229373 C423.56976293 481.0396635 418.35037374 481.03136924 413.13069153 481.01899242 C407.50279749 481.00995775 401.87495431 481.0239038 396.24707031 481.03491211 C385.22076557 481.05271882 374.19456961 481.04884774 363.16826057 481.03726155 C354.20868155 481.02823597 345.24913305 481.02699943 336.28955078 481.03135681 C335.01542989 481.03196974 333.74130899 481.03258268 332.42857838 481.03321418 C329.84040196 481.03449305 327.25222555 481.03578991 324.66404915 481.03710455 C301.07482334 481.04819119 277.4856705 481.03668481 253.89645696 481.01573416 C232.35932491 480.99675152 210.82228747 480.99845002 189.28515625 481.01757812 C165.09161067 481.03899365 140.89813236 481.04741796 116.70457458 481.03512907 C114.12580364 481.03385484 111.54703268 481.03259736 108.96826172 481.03135681 C107.69938519 481.03073971 106.43050867 481.03012261 105.12318134 481.02948681 C96.1721145 481.02602996 87.22108118 481.03186945 78.27001953 481.04127502 C67.36488067 481.05248177 56.459857 481.0494828 45.55473137 481.02815205 C39.98844943 481.01762386 34.42235971 481.01355 28.8560791 481.02674866 C23.76350581 481.03864164 18.67130346 481.03216104 13.57876396 481.01083845 C11.73363043 481.00635926 9.88846574 481.00866805 8.04335213 481.0183416 C5.53992717 481.03046276 3.03778146 481.01807477 0.53442383 480.99945831 C-0.18609791 481.00882298 -0.90661964 481.01818764 -1.64897537 481.02783608 C-6.6946388 480.95256978 -9.54435737 479.75023647 -13.37109375 476.49609375 C-17.19856306 471.99514917 -17.94912854 468.33573927 -17.87445831 462.59057617 C-17.88027208 461.80879879 -17.88608584 461.02702141 -17.89207578 460.2215538 C-17.9066915 457.5979101 -17.89278351 454.97519962 -17.87902832 452.3515625 C-17.88363661 450.45324729 -17.88998905 448.55493564 -17.8979373 446.65663147 C-17.9146635 441.43695043 -17.90636924 436.21756124 -17.89399242 430.99787903 C-17.88495775 425.36998499 -17.8989038 419.74214181 -17.90991211 414.11425781 C-17.92771882 403.08795307 -17.92384774 392.06175711 -17.91226155 381.03544807 C-17.90323597 372.07586905 -17.90199943 363.11632055 -17.90635681 354.15673828 C-17.90696974 352.88261739 -17.90758268 351.60849649 -17.90821418 350.29576588 C-17.90949305 347.70758946 -17.91078991 345.11941305 -17.91210455 342.53123665 C-17.92319119 318.94201084 -17.91168481 295.352858 -17.89073416 271.76364446 C-17.87175152 250.22651241 -17.87345002 228.68947497 -17.89257812 207.15234375 C-17.91399365 182.95879817 -17.92241796 158.76531986 -17.91012907 134.57176208 C-17.90885484 131.99299114 -17.90759736 129.41422018 -17.90635681 126.83544922 C-17.90573971 125.56657269 -17.90512261 124.29769617 -17.90448681 122.99036884 C-17.90102996 114.039302 -17.90686945 105.08826868 -17.91627502 96.13720703 C-17.92748177 85.23206817 -17.9244828 74.3270445 -17.90315205 63.42191887 C-17.89262386 57.85563693 -17.88855 52.28954721 -17.90174866 46.7232666 C-17.91364164 41.63069331 -17.90716104 36.53849096 -17.88583845 31.44595146 C-17.88135926 29.60081793 -17.88366805 27.75565324 -17.8933416 25.91053963 C-17.90546276 23.40711467 -17.89307477 20.90496896 -17.87445831 18.40161133 C-17.88382298 17.68108959 -17.89318764 16.96056786 -17.90283608 16.21821213 C-17.82790964 11.19533165 -16.50417949 8.37416673 -13.37109375 4.49609375 C-8.89710482 0.73637667 -5.7887207 -0.00838364 0 0 Z " fill="#000000" transform="translate(33.37109375,15.50390625)"/>
</svg>
