<?xml version="1.0" encoding="UTF-8"?>
<svg version="1.1" xmlns="http://www.w3.org/2000/svg" width="512" height="512">
<path d="M0 0 C10.36400083 7.03857322 17.37093644 17.02995697 20.625 29.1875 C22.21553127 38.56326326 21.70225843 47.15632068 19.20703125 56.25390625 C18.98742737 57.06923325 18.76782349 57.88456024 18.54156494 58.72459412 C15.52651167 69.7092615 12.00666809 80.53971733 8.5 91.375 C7.94709793 93.08967468 7.94709793 93.08967468 7.38302612 94.83898926 C-19.88481635 179.36047687 -50.94980892 262.52326467 -86.75 343.8125 C-87.17608551 344.78135132 -87.17608551 344.78135132 -87.61077881 345.76977539 C-96.63497356 366.28092609 -106.02635554 386.62378582 -115.75 406.8125 C-116.2248584 407.79927734 -116.6997168 408.78605469 -117.18896484 409.80273438 C-123.50513266 422.77278065 -130.41181551 433.30606854 -143.75 439.8125 C-144.53375 440.225 -145.3175 440.6375 -146.125 441.0625 C-156.58121159 445.76779522 -170.57933986 445.50063091 -181.4375 442.1875 C-186.70399991 440.08982631 -191.23719934 437.21345122 -195.75 433.8125 C-196.61625 433.235 -197.4825 432.6575 -198.375 432.0625 C-210.53171892 420.54560839 -215.08285309 402.46204952 -220.55285645 387.12902832 C-222.4130457 381.91698263 -224.288689 376.71050396 -226.1640625 371.50390625 C-226.54630981 370.44207123 -226.92855713 369.38023621 -227.3223877 368.28622437 C-231.78482081 355.91008132 -236.37082899 343.58045841 -240.98510742 331.26025391 C-241.63726411 329.51857606 -242.2893642 327.77687702 -242.94140625 326.03515625 C-243.25931625 325.18626831 -243.57722626 324.33738037 -243.9047699 323.46276855 C-246.12973974 317.50828246 -248.30587538 311.53728095 -250.46484375 305.55859375 C-251.3435786 303.13978105 -252.22337468 300.72135753 -253.1036377 298.30310059 C-253.65147918 296.78998022 -254.19499321 295.27528472 -254.73376465 293.75891113 C-255.47164378 291.6827551 -256.22442482 289.6125659 -256.98046875 287.54296875 C-257.39707764 286.38176514 -257.81368652 285.22056152 -258.24291992 284.02416992 C-261.83503774 276.36917074 -265.85575277 273.78350484 -273.5390625 270.99609375 C-274.41309723 270.66314804 -275.28713196 270.33020233 -276.18765259 269.98716736 C-279.0348718 268.90939465 -281.89126707 267.85931358 -284.75 266.8125 C-286.6717195 266.0982763 -288.59326789 265.38359206 -290.51464844 264.66845703 C-295.62085302 262.77753759 -300.73673623 260.91424417 -305.85617065 259.05947876 C-311.54072739 256.99964755 -317.22121179 254.92862892 -322.90234375 252.859375 C-324.0559993 252.43948807 -325.20965485 252.01960114 -326.39826965 251.58699036 C-337.20262222 247.65285668 -347.99437511 243.6850132 -358.77984619 239.69943237 C-360.67839197 238.99788426 -362.57710685 238.29679354 -364.47601318 237.59622192 C-370.57186989 235.34703923 -376.66267647 233.08466886 -382.75 230.8125 C-384.15942368 230.28808823 -384.15942368 230.28808823 -385.59732056 229.75308228 C-388.45748644 228.68694759 -391.31498649 227.61394458 -394.171875 226.5390625 C-395.03944931 226.21641922 -395.90702362 225.89377594 -396.80088806 225.56135559 C-411.27368604 220.0870611 -420.98787401 211.87578644 -427.5625 197.63671875 C-432.50004406 185.89380969 -432.23159291 172.72503029 -428.0078125 160.77734375 C-419.47376464 140.66137381 -401.77740899 132.97520275 -383.0625 124.3125 C-381.5748949 123.61935459 -380.08743088 122.92590633 -378.60009766 122.23217773 C-374.74550391 120.43686533 -370.88683399 118.65049036 -367.02703857 116.86639404 C-364.82020677 115.84499418 -362.61511635 114.81993908 -360.41064453 113.79345703 C-295.01959362 83.35952976 -227.68964782 56.96724266 -159.75 32.8125 C-158.3110437 32.30073212 -158.3110437 32.30073212 -156.84301758 31.77862549 C-132.18285462 23.01993464 -107.41662723 14.62582873 -82.5 6.625 C-81.40487091 6.27269318 -80.30974182 5.92038635 -79.181427 5.55740356 C-72.05019301 3.26790744 -64.90829928 1.01595006 -57.75 -1.1875 C-56.77749298 -1.4872876 -55.80498596 -1.7870752 -54.80300903 -2.09594727 C-51.98343596 -2.95729034 -49.1591375 -3.80047142 -46.33203125 -4.63671875 C-45.50987122 -4.88769821 -44.68771118 -5.13867767 -43.84063721 -5.39726257 C-28.51159562 -9.8420568 -13.742075 -8.07253039 0 0 Z " fill="#000000" transform="translate(459.75,25.1875)"/>
</svg>
